<svg xmlns="http://www.w3.org/2000/svg" xmlns:xlink="http://www.w3.org/1999/xlink" width="410" height="205" viewBox="0 0 410 205"><defs><clipPath id="clip-Ch-warning"><rect width="410" height="205"/></clipPath></defs><g id="Ch-warning" clip-path="url(#clip-Ch-warning)"><rect width="410" height="205" fill="#fff"/><rect id="Rectangle_102" width="119" height="104" fill="#38d39f" data-name="Rectangle 102" transform="translate(262 98)"/><rect id="Rectangle_101" width="119" height="49" fill="#38d39f" data-name="Rectangle 101" transform="translate(27 98)"/><g id="Rectangle_1" fill="none" stroke="#242424" stroke-width="3" data-name="Rectangle 1" transform="translate(33 92)"><rect width="119" height="49" stroke="none"/><rect width="122" height="52" x="-1.5" y="-1.5" fill="none"/></g><g id="Rectangle_2" fill="none" stroke="#242424" stroke-width="3" data-name="Rectangle 2" transform="translate(268 87)"><rect width="119" height="108" stroke="none"/><rect width="122" height="111" x="-1.5" y="-1.5" fill="none"/></g><text id="_0000" fill="#222" data-name="0" font-family="HelveticaNeue, Helvetica Neue" font-size="50" letter-spacing=".05em" transform="translate(33 132)"><tspan x="0" y="0">0000</tspan></text><text id="MMMM" fill="#222" font-family="HelveticaNeue, Helvetica Neue" font-size="50" letter-spacing=".05em" transform="translate(268 81)"><tspan x="0" y="48">MM</tspan><tspan x="0" y="108">MM</tspan></text><path id="Path_1" fill="none" stroke="#242424" stroke-width="3" d="M592.948,396.5V377.95h23.895V396.5" data-name="Path 1" transform="translate(-557.448 -309)"/><path id="Path_2" fill="none" stroke="#242424" stroke-width="3" d="M604.9,357.95v-13.3" data-name="Path 2" transform="translate(-558 -289)"/><text id="_20px" fill="#5b9a25" data-name="20" font-family="HelveticaNeue-Bold, Helvetica Neue" font-size="10" font-weight="700" letter-spacing="-.01em" transform="translate(37 49)"><tspan x="0" y="0">20px</tspan></text><text id="_36px" fill="#a21b1b" data-name="36" font-family="HelveticaNeue-Bold, Helvetica Neue" font-size="10" font-weight="700" letter-spacing="-.01em" transform="translate(279 46)"><tspan x="0" y="0">36px</tspan></text><path id="Path_3" fill="none" stroke="#242424" stroke-width="3" d="M592.948,396.5V377.95h38.895V396.5" data-name="Path 3" transform="translate(-322.448 -314)"/><path id="Path_4" fill="none" stroke="#707070" stroke-width="3" d="M604.9,357.95v-13.3" data-name="Path 4" transform="translate(-315.396 -294)"/><line id="Line_1" y2="51" fill="none" stroke="#242424" stroke-dasharray="2 4" stroke-width="1" data-name="Line 1" transform="translate(270.5 82.5)"/><line id="Line_3" y2="51" fill="none" stroke="#242424" stroke-dasharray="2 4" stroke-width="1" data-name="Line 3" transform="translate(35.5 87.5)"/><line id="Line_2" y2="51" fill="none" stroke="#242424" stroke-dasharray="2 4" stroke-width="1" data-name="Line 2" transform="translate(309.5 82.5)"/><line id="Line_4" y2="51" fill="none" stroke="#242424" stroke-dasharray="2 4" stroke-width="1" data-name="Line 4" transform="translate(59.5 87.5)"/><text id="_4ch" fill="#262626" data-name="4ch" font-family="HelveticaNeue-Bold, Helvetica Neue" font-size="50" font-weight="700" letter-spacing="-.01em" transform="translate(160 49)"><tspan x="0" y="0">4ch</tspan></text><text id="_1ch_20px" fill="#262626" data-name="1ch = ~20px" font-family="HelveticaNeue-Bold, Helvetica Neue" font-size="10" font-weight="700" letter-spacing="-.01em" transform="translate(203 66)"><tspan x="-28.195" y="0">1ch = ~20px</tspan></text></g></svg>