<svg xmlns="http://www.w3.org/2000/svg" xmlns:xlink="http://www.w3.org/1999/xlink" width="1207" height="618" viewBox="0 0 1207 618"><defs><linearGradient id="linear-gradient" x1=".399" x2=".63" y1="-.209" y2="1" gradientUnits="objectBoundingBox"><stop offset="0" stop-color="#b4f1fd"/><stop offset="1" stop-color="#ffcf98"/></linearGradient><filter id="JAMstack_to_watch_in" width="584" height="201" x="562.92" y="110.831" filterUnits="userSpaceOnUse"><feOffset dy="1" input="SourceAlpha"/><feGaussianBlur result="blur" stdDeviation=".5"/><feFlood flood-opacity=".161"/><feComposite in2="blur" operator="in"/><feComposite in="SourceGraphic"/></filter><clipPath id="clip-Artboard_1"><rect width="1207" height="618"/></clipPath></defs><g id="Artboard_1" clip-path="url(#clip-Artboard_1)" data-name="Artboard – 1"><rect width="1207" height="618" fill="url(#linear-gradient)"/><g id="undraw_new_decade_n4qd" transform="translate(546.627 119.841)"><path id="Path_141" fill="#fbbebe" d="M903.525,547.127l-.25,7.585-2,16.224-6.754,1.054-1.751-6.532v-8.428s3.752-5.9,2.752-9.9S903.525,547.127,903.525,547.127Z" data-name="Path 141" transform="translate(-424.129 -299.456)"/><ellipse id="Ellipse_5" cx="8.274" cy="8.274" fill="#2f2e41" data-name="Ellipse 5" rx="8.274" ry="8.274" transform="translate(469.882 231.774)"/><path id="Path_142" fill="#fbbebe" d="M837.622,665.95l.5,10.257,5.5-1.5-.5-8.255Z" data-name="Path 142" transform="translate(-379.989 -302.11)"/><path id="Path_143" fill="#fbbebe" d="M905.844,663.5l2.627,10.631,4.5-1L910.6,662.745Z" data-name="Path 143" transform="translate(-410.939 -300.656)"/><path id="Path_144" fill="#fbbebe" d="M857.863,649.513l-1,3.252s-3,8.756,0,9.256,3.752-8.005,3.752-8.005l1.751-3Z" data-name="Path 144" transform="translate(-407.234 -346.71)"/><path id="Path_145" fill="#575a89" d="M827.223,537.289l-4.253,9.756,6.44,2.837,3.567-12.593Z" data-name="Path 145" transform="translate(-373.342 -243.743)"/><path id="Path_146" fill="#2f2e41" d="M860.607,520.475,868.612,562l9.506,36.523-12.758,2.251L849.1,547.241l-8.255,54.034-11.007-1.251,2.751-56.785,6-24.265Z" data-name="Path 146" transform="translate(-376.458 -235.434)"/><path id="Path_147" fill="#2f2e41" d="M873.4,776.97c.5,0,3,2.752,2.251,5.754a44.415,44.415,0,0,0-1,6.5s-9.131,3.127-13.884.125,4.878-6.379,4.878-6.379l.5-6.5,7.255-1.5Z" data-name="Path 147" transform="translate(-409.014 -403.624)"/><path id="Path_148" fill="#2f2e41" d="M943.683,776.97c.5,0,3,2.752,2.251,5.754a44.431,44.431,0,0,0-1,6.5s-9.131,3.127-13.884.125,4.878-6.379,4.878-6.379l.5-6.5,7.255-1.5Z" data-name="Path 148" transform="translate(-440.898 -403.624)"/><ellipse id="Ellipse_6" cx="6.754" cy="6.754" fill="#fbbebe" data-name="Ellipse 6" rx="6.754" ry="6.754" transform="translate(468.889 235.26)"/><path id="Path_149" fill="#575a89" d="M893.159,570.163l5-17.261,1.751,1,9.756,24.515-4.5,12.007s-22.014-1.5-22.014-1.751,2.251-29.018,2.251-29.018l4.369-5.053.134,3.552Z" data-name="Path 149" transform="translate(-419.766 -302.883)"/><path id="Path_150" fill="#2f2e41" d="M924.01,554.593s-.25-2.251-2-1.751-10.7-.073-10.7-.073-2.559,3.074.693,9.328,6.879,49.406,6.879,49.406l11.632-2.877-6-39.024Z" data-name="Path 150" transform="translate(-432.106 -302.823)"/><path id="Path_151" fill="#2f2e41" d="M849.636,458.306l-11.882,9.631.75,16.761-5,34.021,6.5,1.5,9.256-60.287Z" data-name="Path 151" transform="translate(-378.12 -207.912)"/><path id="Path_152" fill="#fbbebe" d="M927.108,600.063l-5.5,1.751s-4,8.255-1.251,9.256,3.873-6.243,3.873-6.243l5.132-1.762Z" data-name="Path 152" transform="translate(-436.205 -324.277)"/><path id="Path_153" fill="#2f2e41" d="M872.177,570.066l-.258-.834-1.243.834a20.259,20.259,0,0,0-2.5,7c-.5,3.752-4.253,28.268-4.253,28.268l7.5-.75Z" data-name="Path 153" transform="translate(-411.043 -310.291)"/><path id="Path_154" fill="#575a89" d="M905.192,498.828l-8.5,3,2.751,5.5,10.006-4.252Z" data-name="Path 154" transform="translate(-406.784 -226.295)"/><path id="Path_155" fill="#2f2e41" d="M930.313,555.191c.25,0,24.765,14.259,22.014,20.013a15.138,15.138,0,0,1-8.255,7.5l-6-6.254,3-2.251-9.256-6Z" data-name="Path 155" transform="translate(-441.161 -303.921)"/><path id="Path_156" fill="#2f2e41" d="M909.086,521.209a4.754,4.754,0,0,0-2.239-3.866c.688-1.383,1.3-2.961.85-4.437a3.386,3.386,0,0,0-2.551-2.283,6.648,6.648,0,0,0-1.982.026l-3.091.351a6.751,6.751,0,0,0-2.9.78,3.356,3.356,0,0,0-.388,5.386c-2.163,1.73-3.608,3.043-4.592,5.632a9.3,9.3,0,0,1,5.84-2.091,5.567,5.567,0,0,1,5.849,5.1,10.3,10.3,0,0,0,.19,2.16,1.589,1.589,0,0,0,1.561,1.242,3.833,3.833,0,0,1-.281-2.675l.007-.014a.809.809,0,0,1,.439-.377,1.265,1.265,0,0,1,1.682.88c.24.922.624,2.1.959,1.785.439-.409.254-4.013.373-4.572A10.5,10.5,0,0,0,909.086,521.209Z" data-name="Path 156" transform="translate(-423.869 -283.675)"/><path id="Path_157" fill="#d0cde1" d="M910.605,522.807s-6.8.443-10.05-.148" data-name="Path 157" transform="translate(-427.661 -289.163)"/><path id="Path_158" fill="#2f2e41" d="M917.965,516.2c.688-1.383,1.3-2.961.85-4.437a3.352,3.352,0,0,0-1.186-1.667,3.394,3.394,0,0,1,1.813,2.043c.454,1.477-.161,3.055-.85,4.437C918.047,516.491,919.336,516.926,917.965,516.2Z" data-name="Path 158" transform="translate(-435.407 -283.462)"/><path id="Path_159" fill="#6c63ff" d="M112.2,599.643l10.107-9.905a57.281,57.281,0,1,1,71.162-55.574q0,1.836-.12,3.65a57.581,57.581,0,0,1-.869,6.988,54.106,54.106,0,0,1-2.065,10.484c-4.529,15.189-15.216,29.235-26.525,40.151l-27.929,26.957H161.74a32.512,32.512,0,0,1,32.508,32.5L88.988,654.9a77.362,77.362,0,0,1,21.391-53.407Q111.27,600.553,112.2,599.643Z" data-name="Path 159" transform="translate(-54.918 -268.395)"/><path id="Path_160" fill="#3f3d56" d="M181.666,508.678l-24.624,14.216-48.958,28.268L83.455,565.384a56.919,56.919,0,0,1-3.595-13.7l28.765-16.609,34.223-19.756L171.6,498.707A57.181,57.181,0,0,1,181.666,508.678Z" data-name="Path 160" transform="translate(-55.351 -278.297)"/><path id="Path_161" fill="#3f3d56" d="M219.484,588.407a57.584,57.584,0,0,1-.869,6.988,54.106,54.106,0,0,1-2.065,10.484l-80.04,46.21q.893-.942,1.825-1.852l10.107-9.905a56.932,56.932,0,0,1-11.539-4.245Z" data-name="Path 161" transform="translate(-81.05 -318.99)"/><ellipse id="Ellipse_7" cx="29.411" cy="29.411" fill="#fff" data-name="Ellipse 7" rx="29.411" ry="29.411" transform="translate(51.87 236.356)"/><path id="Path_162" fill="#6c63ff" d="M484.733,649.993a57.276,57.276,0,0,1-114.422,3.841c-.087-1.268-.131-2.551-.131-3.841a57.281,57.281,0,0,1,112.553-15.035v.005a56.846,56.846,0,0,1,1.994,14.62v.005C484.733,649.725,484.733,649.857,484.733,649.993Z" data-name="Path 162" transform="translate(-187.055 -320.942)"/><path id="Path_163" fill="#3f3d56" d="M459.36,604.549l-31.47,18.166-26.132,15.09L370.311,655.96c-.087-1.268-.131-2.551-.131-3.841a57.335,57.335,0,0,1,1.41-12.675L444.418,597.4A57.087,57.087,0,0,1,459.36,604.549Z" data-name="Path 163" transform="translate(-187.055 -323.068)"/><path id="Path_164" fill="#3f3d56" d="M498.541,684.668v.005l-36.146,20.865-.011.005-13.97,8.069-36.135,20.865a57.051,57.051,0,0,1-11.648-9.053L426.478,710.5l44.2-25.52,25.864-14.932A56.838,56.838,0,0,1,498.541,684.668Z" data-name="Path 164" transform="translate(-200.869 -356.026)"/><ellipse id="Ellipse_8" cx="29.411" cy="29.411" fill="#fff" data-name="Ellipse 8" rx="29.411" ry="29.411" transform="translate(210.99 299.64)"/><path id="Path_165" fill="#6c63ff" d="M683.944,592.5l1.12-1.1a57.227,57.227,0,0,1-43.282-52.149q-.106-1.7-.1-3.426A57.27,57.27,0,1,1,756.216,535c.01.279.01.552.01.831a57.809,57.809,0,0,1-.987,10.625,50.362,50.362,0,0,1-.784,5.334v.005c-3.42,17.155-15.227,33.163-27.809,45.309l-27.929,26.957h25.777A32.512,32.512,0,0,1,757,656.56l-105.265.005a77.365,77.365,0,0,1,23.218-55.256Z" data-name="Path 165" transform="translate(-310.221 -268.968)"/><path id="Path_166" fill="#3f3d56" d="M741.573,505.678,644.547,561.7a56.757,56.757,0,0,1-2.677-14.232L730.6,496.237A57.351,57.351,0,0,1,741.573,505.678Z" data-name="Path 166" transform="translate(-310.308 -277.177)"/><path id="Path_167" fill="#3f3d56" d="M779.4,583.038a57.808,57.808,0,0,1-.987,10.625,50.381,50.381,0,0,1-.784,5.334V599L707.122,639.71l1.12-1.1a56.911,56.911,0,0,1-15.473-6.392l86.623-50.013C779.4,582.486,779.4,582.759,779.4,583.038Z" data-name="Path 167" transform="translate(-333.399 -316.177)"/><ellipse id="Ellipse_9" cx="29.411" cy="29.411" fill="#fff" data-name="Ellipse 9" rx="29.411" ry="29.411" transform="translate(359.32 237.449)"/><path id="Path_168" fill="#6c63ff" d="M1055.887,652.316c0,.4-.005.814-.011,1.218A57.273,57.273,0,0,1,941.6,657.7c-.175-1.776-.257-3.568-.257-5.387a57.274,57.274,0,1,1,114.547,0Z" data-name="Path 168" transform="translate(-446.163 -321.992)"/><path id="Path_169" fill="#3f3d56" d="M1031.793,608.249l-90.2,52.078c-.175-1.776-.257-3.568-.257-5.387a56.693,56.693,0,0,1,1.032-10.839l74.986-43.293A56.989,56.989,0,0,1,1031.793,608.249Z" data-name="Path 169" transform="translate(-446.163 -324.615)"/><path id="Path_170" fill="#3f3d56" d="M1070.554,688.573c0,.4-.005.814-.011,1.218L985.7,738.777a57.192,57.192,0,0,1-12.025-8.834l95.25-55a57.131,57.131,0,0,1,1.634,13.626Z" data-name="Path 170" transform="translate(-460.83 -358.249)"/><ellipse id="Ellipse_10" cx="29.411" cy="29.411" fill="#fff" data-name="Ellipse 10" rx="29.411" ry="29.411" transform="translate(523.039 300.914)"/><path id="Path_171" fill="#2f2e41" d="M338.17,651.364v4.857s-34.769-2.557-36.559-5.369,2.3-21.475,2.3-21.475l30.167,5.88Z" data-name="Path 171" transform="translate(-155.743 -337.576)"/><path id="Path_172" d="M338.17,651.364v4.857s-34.769-2.557-36.559-5.369,2.3-21.475,2.3-21.475l30.167,5.88Z" data-name="Path 172" opacity=".3" transform="translate(-155.743 -337.576)"/><path id="Path_173" fill="#2f2e41" d="M302.321,693.969l18.919,26.588,2.557,1.79-7.414,10.993-23.265-27.1s-6.9-6.647-3.579-10.482S302.321,693.969,302.321,693.969Z" data-name="Path 173" transform="translate(-150.061 -366.631)"/><path id="Path_174" fill="#2f2e41" d="M341.434,746.044s3.835-1.534,6.136,1.534l-3.324,7.67s-8.181,12.527-11.5,12.271-2.557-5.113-1.534-5.624,3.559-5.476,3.559-5.476Z" data-name="Path 174" transform="translate(-168.978 -390.328)"/><path id="Path_175" fill="#2f2e41" d="M331.3,781.033l.015,7.646a7.092,7.092,0,0,1-8.437,3.835c-6.136-1.534-1.023-6.391-1.023-6.391l1.534-4.09Z" data-name="Path 175" transform="translate(-164.226 -406.375)"/><ellipse id="Ellipse_11" cx="7.67" cy="7.67" fill="#a0616a" data-name="Ellipse 11" rx="7.67" ry="7.67" transform="translate(161.335 226.226)"/><path id="Path_176" fill="#a0616a" d="M295.662,427.874l-1.534,9.971,7.158,10.226,5.113-15.595Z" data-name="Path 176" transform="translate(-133.432 -194.106)"/><path id="Path_177" fill="#575a89" d="M289.428,447.387l6.89-2.94,1.035,50.236-21.475-1.534,7.414-48.063,2.891-2.94Z" data-name="Path 177" transform="translate(-125.153 -200.581)"/><path id="Path_178" fill="#2f2e41" d="M336.144,548.155l.19-1.919,2.11.385,4.739-7.245,3.953,2.132,10.738,6.9-4.6,29.4v20.2s5.624,10.482,1.023,17.385L347.9,602.1s-12.016-20.708-11.76-27.1S336.144,548.155,336.144,548.155Z" data-name="Path 178" transform="translate(-171.613 -296.747)"/><path id="Path_179" fill="#2f2e41" d="M312.44,544.01l1.184-7.571-2.463,1.691-11.5,5.369-5.624,69.027,13.55,4.858S316.53,550.146,312.44,544.01Z" data-name="Path 179" transform="translate(-152.511 -295.414)"/><path id="Path_180" fill="#2f2e41" d="M300.515,627.506l25.054,1.023s2.3,13.805.511,24.8-8.437,59.823-8.437,59.823h-8.692l3.323-38.86-1.023-23.52-7.414,14.317-13.55.767Z" data-name="Path 180" transform="translate(-150.813 -336.727)"/><path id="Path_181" fill="#2f2e41" d="M339.7,498.745c.6-.1,1.255-.373,1.76-.043a2.335,2.335,0,0,1,.609.812,8.025,8.025,0,0,0,2.534,2.163,4.157,4.157,0,0,1,2.015,2.567,17.8,17.8,0,0,1-.321,2.863c-.017,1.22.645,2.542.02,3.59-.286.479-.793.788-1.106,1.25-.552.816-.549,2.131-1.48,2.453a19.169,19.169,0,0,0-.2-3.485,2.277,2.277,0,0,0-.3-.947c-.416-.622-1.27-.717-2-.875a6.882,6.882,0,0,1-4.489-3.321c.468.555-.063,1.493-.777,1.627a2.372,2.372,0,0,1-1.949-.776,4.669,4.669,0,0,1-3.219,6.389,2.533,2.533,0,0,0-1.04-2.252c-.739-.522-1.795-.677-2.235-1.468a2.772,2.772,0,0,1-.007-2.01l.627-2.488a3.828,3.828,0,0,1,2.062-3.067l1.879-1.2a6.755,6.755,0,0,1,1.925-.969c.615-.154,1.238.036,1.84-.129.5-.136.9-.493,1.42-.607C338.076,498.642,338.9,498.875,339.7,498.745Z" data-name="Path 181" transform="translate(-167.621 -278.223)"/><path id="Path_182" fill="#a0616a" d="M298.632,640.141s4.346,11.249-.256,11.76-4.346-9.971-4.346-9.971Z" data-name="Path 182" transform="translate(-152.509 -342.459)"/><path id="Path_183" fill="#2f2e41" d="M264.454,453.82l-1.23-.874-1.327.363-6.9,25.821-2.045,28.122,9.459-3.835-.511-19.941Z" data-name="Path 183" transform="translate(-114.751 -205.48)"/><path id="Path_184" fill="#a0616a" d="M320.234,550.786l-2.812,3.068-1.251-5.509Z" data-name="Path 184" transform="translate(-143.432 -248.758)"/><path id="Path_185" fill="#2f2e41" d="M361.521,555.632l1.3-.9,1,.39s8.692,25.054,6.9,31.19-15.339,22.5-15.339,22.5l-6.136-6.647,11.5-17.129-3.579-4.091Z" data-name="Path 185" transform="translate(-177.56 -303.713)"/><path id="Path_186" d="M293.374,626.854l-1.186,13.861,1.186-19.552.641.9Z" data-name="Path 186" opacity=".3" transform="translate(-132.552 -281.793)"/><path id="Path_187" d="M308.854,645.1,305.8,667.309l4.233-20.86Z" data-name="Path 187" opacity=".3" transform="translate(-138.727 -292.652)"/><rect id="Rectangle_6" width="617.373" height="1.093" fill="#3f3d56" data-name="Rectangle 6" transform="translate(0 386.008)"/><ellipse id="Ellipse_12" cx="14.751" cy="14.751" fill="#3f3d56" data-name="Ellipse 12" rx="14.751" ry="14.751" transform="translate(312.511 312.251)"/><path id="Path_188" fill="#d800ff" d="M897.157,214.571s-20.193,9.121-24.066,17.54S897.157,214.571,897.157,214.571Z" data-name="Path 188" opacity=".33" transform="translate(-415.035 -149.398)"/><path id="Path_295" fill="#d800ff" d="M897.157,214.571s-20.193,9.121-24.066,17.54S897.157,214.571,897.157,214.571Z" data-name="Path 295" opacity=".33" transform="matrix(-0.438, -0.899, 0.899, -0.438, 432.59, 951.716)"/><path id="Path_189" fill="#d800ff" d="M895.916,197.291s-18.609-2.509-24.254,1.778S895.916,197.291,895.916,197.291Z" data-name="Path 189" opacity=".33" transform="translate(-414.232 -141.228)"/><path id="Path_290" fill="#d800ff" d="M895.916,197.291s-18.609-2.509-24.254,1.778S895.916,197.291,895.916,197.291Z" data-name="Path 290" opacity=".33" transform="matrix(-0.438, -0.899, 0.899, -0.438, 439.581, 947.413)"/><path id="Path_190" fill="#d800ff" d="M920.208,162.992s-9.36-29.474-7.092-32.391S920.208,162.992,920.208,162.992Z" data-name="Path 190" opacity=".33" transform="translate(-433.199 -111.227)"/><path id="Path_288" fill="#d800ff" d="M920.208,162.992s-9.36-29.474-7.092-32.391S920.208,162.992,920.208,162.992Z" data-name="Path 288" opacity=".33" transform="matrix(-0.438, -0.899, 0.899, -0.438, 474.86, 951.309)"/><path id="Path_191" fill="#d800ff" d="M932.867,177.156s5.024-29.791,10.287-29.791S932.867,177.156,932.867,177.156Z" data-name="Path 191" opacity=".33" transform="translate(-442.32 -118.91)"/><path id="Path_285" fill="#d800ff" d="M932.867,177.156s5.024-29.791,10.287-29.791S932.867,177.156,932.867,177.156Z" data-name="Path 285" opacity=".33" transform="matrix(-0.438, -0.899, 0.899, -0.438, 471.953, 962.874)"/><path id="Path_192" fill="#d800ff" d="M938.264,193.491s17.272-14.314,52.66-9.944S938.264,193.491,938.264,193.491Z" data-name="Path 192" opacity=".33" transform="translate(-444.768 -134.947)"/><path id="Path_281" fill="#d800ff" d="M938.264,193.491s17.272-14.314,52.66-9.944S938.264,193.491,938.264,193.491Z" data-name="Path 281" opacity=".33" transform="matrix(-0.438, -0.899, 0.899, -0.438, 458.612, 972.105)"/><path id="Path_193" fill="#d800ff" d="M958.313,205.491s30.255-.53,31.955,3.707S958.313,205.491,958.313,205.491Z" data-name="Path 193" opacity=".33" transform="translate(-453.863 -145.269)"/><path id="Path_280" fill="#d800ff" d="M958.313,205.491s30.255-.53,31.955,3.707S958.313,205.491,958.313,205.491Z" data-name="Path 280" opacity=".33" transform="matrix(-0.438, -0.899, 0.899, -0.438, 453.322, 984.805)"/><path id="Path_194" fill="#d800ff" d="M947.517,213.56s18.274,11.077,14.7,14.485S947.517,213.56,947.517,213.56Z" data-name="Path 194" opacity=".33" transform="translate(-448.966 -148.939)"/><path id="Path_282" fill="#d800ff" d="M947.517,213.56s18.274,11.077,14.7,14.485S947.517,213.56,947.517,213.56Z" data-name="Path 282" opacity=".33" transform="matrix(-0.438, -0.899, 0.899, -0.438, 447.876, 982.012)"/><path id="Path_195" fill="#d800ff" d="M1003.035,237.829s15.166,8.287,11.8,13.812S1003.035,237.829,1003.035,237.829Z" data-name="Path 195" opacity=".33" transform="translate(-474.152 -159.949)"/><path id="Path_279" fill="#d800ff" d="M1003.035,237.829s15.166,8.287,11.8,13.812S1003.035,237.829,1003.035,237.829Z" data-name="Path 279" opacity=".33" transform="matrix(-0.438, -0.899, 0.899, -0.438, 449.022, 1009.475)"/><path id="Path_196" fill="#d800ff" d="M951.373,225.694s31.6,45.3,28.647,48.064S951.373,225.694,951.373,225.694Z" data-name="Path 196" opacity=".33" transform="translate(-450.715 -154.444)"/><path id="Path_278" fill="#d800ff" d="M951.373,225.694s31.6,45.3,28.647,48.064S951.373,225.694,951.373,225.694Z" data-name="Path 278" opacity=".33" transform="matrix(-0.438, -0.899, 0.899, -0.438, 443.695, 985.997)"/><path id="Path_197" fill="#d800ff" d="M940.578,219.627s13.3,29.055,10.588,31.879S940.578,219.627,940.578,219.627Z" data-name="Path 197" opacity=".33" transform="translate(-445.818 -151.692)"/><path id="Path_284" fill="#d800ff" d="M940.578,219.627s13.3,29.055,10.588,31.879S940.578,219.627,940.578,219.627Z" data-name="Path 284" opacity=".33" transform="matrix(-0.438, -0.899, 0.899, -0.438, 444.022, 980.389)"/><path id="Path_198" fill="#d800ff" d="M924.456,217.6s-11.972,46.329-4.626,45.851S924.456,217.6,924.456,217.6Z" data-name="Path 198" opacity=".33" transform="translate(-435.324 -150.774)"/><path id="Path_289" fill="#d800ff" d="M924.456,217.6s-11.972,46.329-4.626,45.851S924.456,217.6,924.456,217.6Z" data-name="Path 289" opacity=".33" transform="matrix(-0.438, -0.899, 0.899, -0.438, 440.247, 970.555)"/><path id="Path_199" fill="#d800ff" d="M907.449,221.82s-20.1,30.144-18.258,33.319S907.449,221.82,907.449,221.82Z" data-name="Path 199" opacity=".33" transform="translate(-422.452 -152.687)"/><path id="Path_294" fill="#d800ff" d="M907.449,221.82s-20.1,30.144-18.258,33.319S907.449,221.82,907.449,221.82Z" data-name="Path 294" opacity=".33" transform="matrix(-0.438, -0.899, 0.899, -0.438, 432.886, 959.824)"/><path id="Path_200" fill="#d800ff" d="M880.98,164.166s-17.521-27.141-33.723-24.511S880.98,164.166,880.98,164.166Z" data-name="Path 200" opacity=".33" transform="translate(-402.015 -115.331)"/><path id="Path_291" fill="#d800ff" d="M880.98,164.166s-17.521-27.141-33.723-24.511S880.98,164.166,880.98,164.166Z" data-name="Path 291" opacity=".33" transform="matrix(-0.438, -0.899, 0.899, -0.438, 457.501, 925.079)"/><path id="Path_201" fill="#d800ff" d="M868.689,180.839s-23.17-2.21-21.485,3.315S868.689,180.839,868.689,180.839Z" data-name="Path 201" opacity=".33" transform="translate(-403.419 -133.897)"/><path id="Path_293" fill="#d800ff" d="M868.689,180.839s-23.17-2.21-21.485,3.315S868.689,180.839,868.689,180.839Z" data-name="Path 293" opacity=".33" transform="matrix(-0.438, -0.899, 0.899, -0.438, 441.429, 934.481)"/><path id="Path_202" fill="#d800ff" d="M894.2,138.548s-1.264-7.735-3.37-6.077S894.2,138.548,894.2,138.548Z" data-name="Path 202" opacity=".33" transform="translate(-423.03 -112.047)"/><path id="Path_292" fill="#d800ff" d="M894.2,138.548s-1.264-7.735-3.37-6.077S894.2,138.548,894.2,138.548Z" data-name="Path 292" opacity=".33" transform="matrix(-0.438, -0.899, 0.899, -0.438, 469.665, 942.528)"/><path id="Path_203" fill="#d800ff" d="M936.465,127.256s5.781-31.856,3.161-31.973S936.465,127.256,936.465,127.256Z" data-name="Path 203" opacity=".33" transform="translate(-443.952 -95.282)"/><path id="Path_287" fill="#d800ff" d="M936.465,127.256s5.781-31.856,3.161-31.973S936.465,127.256,936.465,127.256Z" data-name="Path 287" opacity=".33" transform="matrix(-0.438, -0.899, 0.899, -0.438, 493.905, 953.984)"/><path id="Path_204" fill="#d800ff" d="M985.3,156.632s2.528-8.287,5.055-6.077S985.3,156.632,985.3,156.632Z" data-name="Path 204" opacity=".33" transform="translate(-466.106 -120.187)"/><path id="Path_283" fill="#d800ff" d="M985.3,156.632s2.528-8.287,5.055-6.077S985.3,156.632,985.3,156.632Z" data-name="Path 283" opacity=".33" transform="matrix(-0.438, -0.899, 0.899, -0.438, 481.233, 984.813)"/><path id="Path_205" fill="#d800ff" d="M940.6,296.478s-3.37,32.6,2.949,32.043S940.6,296.478,940.6,296.478Z" data-name="Path 205" opacity=".33" transform="translate(-445.422 -186.555)"/><path id="Path_286" fill="#d800ff" d="M940.6,296.478s-3.37,32.6,2.949,32.043S940.6,296.478,940.6,296.478Z" data-name="Path 286" opacity=".33" transform="matrix(-0.438, -0.899, 0.899, -0.438, 412.514, 995.317)"/><path id="Path_206" fill="#d15656" d="M270.3,372.535s-19.117,6.213-22.783,11.947S270.3,372.535,270.3,372.535Z" data-name="Path 206" opacity=".33" transform="translate(-131.252 -221.059)"/><path id="Path_250" fill="#d15656" d="M270.3,372.535s-19.117,6.213-22.783,11.947S270.3,372.535,270.3,372.535Z" data-name="Path 250" opacity=".33" transform="matrix(-0.438, -0.899, 0.899, -0.438, 249.779, 593.068)"/><path id="Path_207" fill="#d15656" d="M269.129,360.765s-17.617-1.709-22.961,1.211S269.129,360.765,269.129,360.765Z" data-name="Path 207" opacity=".33" transform="translate(-130.492 -215.494)"/><path id="Path_243" fill="#d15656" d="M269.129,360.765s-17.617-1.709-22.961,1.211S269.129,360.765,269.129,360.765Z" data-name="Path 243" opacity=".33" transform="matrix(-0.438, -0.899, 0.899, -0.438, 254.448, 589.945)"/><path id="Path_208" fill="#d15656" d="M292.126,337.4s-8.861-20.076-6.714-22.063S292.126,337.4,292.126,337.4Z" data-name="Path 208" opacity=".33" transform="translate(-148.448 -195.059)"/><path id="Path_244" fill="#d15656" d="M292.126,337.4s-8.861-20.076-6.714-22.063S292.126,337.4,292.126,337.4Z" data-name="Path 244" opacity=".33" transform="matrix(-0.438, -0.899, 0.899, -0.438, 280.686, 597.126)"/><path id="Path_209" fill="#d15656" d="M304.11,347.05s4.756-20.292,9.739-20.292S304.11,347.05,304.11,347.05Z" data-name="Path 209" opacity=".33" transform="translate(-157.082 -200.292)"/><path id="Path_245" fill="#d15656" d="M304.11,347.05s4.756-20.292,9.739-20.292S304.11,347.05,304.11,347.05Z" data-name="Path 245" opacity=".33" transform="matrix(-0.438, -0.899, 0.899, -0.438, 279.768, 607.18)"/><path id="Path_210" fill="#d15656" d="M309.22,358.176s16.352-9.75,49.853-6.774S309.22,358.176,309.22,358.176Z" data-name="Path 210" opacity=".33" transform="translate(-159.401 -211.216)"/><path id="Path_246" fill="#d15656" d="M309.22,358.176s16.352-9.75,49.853-6.774S309.22,358.176,309.22,358.176Z" data-name="Path 246" opacity=".33" transform="matrix(-0.438, -0.899, 0.899, -0.438, 270.966, 614.053)"/><path id="Path_211" fill="#d15656" d="M328.2,366.35s28.643-.361,30.252,2.525S328.2,366.35,328.2,366.35Z" data-name="Path 211" opacity=".33" transform="translate(-168.011 -218.247)"/><path id="Path_251" fill="#d15656" d="M328.2,366.35s28.643-.361,30.252,2.525S328.2,366.35,328.2,366.35Z" data-name="Path 251" opacity=".33" transform="matrix(-0.438, -0.899, 0.899, -0.438, 268.421, 624.873)"/><path id="Path_212" fill="#d15656" d="M317.98,371.846s17.3,7.545,13.92,9.866S317.98,371.846,317.98,371.846Z" data-name="Path 212" opacity=".33" transform="translate(-163.375 -220.746)"/><path id="Path_252" fill="#d15656" d="M317.98,371.846s17.3,7.545,13.92,9.866S317.98,371.846,317.98,371.846Z" data-name="Path 252" opacity=".33" transform="matrix(-0.438, -0.899, 0.899, -0.438, 264.142, 621.802)"/><path id="Path_213" fill="#d15656" d="M370.538,388.377s14.358,5.645,11.167,9.408S370.538,388.377,370.538,388.377Z" data-name="Path 213" opacity=".33" transform="translate(-187.218 -228.245)"/><path id="Path_253" fill="#d15656" d="M370.538,388.377s14.358,5.645,11.167,9.408S370.538,388.377,370.538,388.377Z" data-name="Path 253" opacity=".33" transform="matrix(-0.438, -0.899, 0.899, -0.438, 267.854, 646.52)"/><path id="Path_214" fill="#d15656" d="M321.63,380.111s29.912,30.857,27.12,32.739S321.63,380.111,321.63,380.111Z" data-name="Path 214" opacity=".33" transform="translate(-165.03 -224.496)"/><path id="Path_254" fill="#d15656" d="M321.63,380.111s29.912,30.857,27.12,32.739S321.63,380.111,321.63,380.111Z" data-name="Path 254" opacity=".33" transform="matrix(-0.438, -0.899, 0.899, -0.438, 261.497, 624.934)"/><path id="Path_215" fill="#d15656" d="M311.41,375.979s12.594,19.79,10.024,21.714S311.41,375.979,311.41,375.979Z" data-name="Path 215" opacity=".33" transform="translate(-160.394 -222.621)"/><path id="Path_255" fill="#d15656" d="M311.41,375.979s12.594,19.79,10.024,21.714S311.41,375.979,311.41,375.979Z" data-name="Path 255" opacity=".33" transform="matrix(-0.438, -0.899, 0.899, -0.438, 261.15, 619.945)"/><path id="Path_216" fill="#d15656" d="M296.147,374.6s-11.334,31.556-4.379,31.231S296.147,374.6,296.147,374.6Z" data-name="Path 216" opacity=".33" transform="translate(-150.459 -221.996)"/><path id="Path_256" fill="#d15656" d="M296.147,374.6s-11.334,31.556-4.379,31.231S296.147,374.6,296.147,374.6Z" data-name="Path 256" opacity=".33" transform="matrix(-0.438, -0.899, 0.899, -0.438, 257.357, 610.742)"/><path id="Path_217" fill="#d15656" d="M280.047,377.472S261.022,398,262.763,400.167,280.047,377.472,280.047,377.472Z" data-name="Path 217" opacity=".33" transform="translate(-138.274 -223.299)"/><path id="Path_257" fill="#d15656" d="M280.047,377.472S261.022,398,262.763,400.167,280.047,377.472,280.047,377.472Z" data-name="Path 257" opacity=".33" transform="matrix(-0.438, -0.899, 0.899, -0.438, 250.844, 600.361)"/><path id="Path_218" fill="#d15656" d="M254.988,338.2s-16.587-18.487-31.926-16.7S254.988,338.2,254.988,338.2Z" data-name="Path 218" opacity=".33" transform="translate(-118.926 -197.854)"/><path id="Path_247" fill="#d15656" d="M254.988,338.2s-16.587-18.487-31.926-16.7S254.988,338.2,254.988,338.2Z" data-name="Path 247" opacity=".33" transform="matrix(-0.438, -0.899, 0.899, -0.438, 265.232, 571.817)"/><path id="Path_219" fill="#d15656" d="M243.353,349.559s-21.935-1.505-20.34,2.258S243.353,349.559,243.353,349.559Z" data-name="Path 219" opacity=".33" transform="translate(-120.255 -210.501)"/><path id="Path_248" fill="#d15656" d="M243.353,349.559s-21.935-1.505-20.34,2.258S243.353,349.559,243.353,349.559Z" data-name="Path 248" opacity=".33" transform="matrix(-0.438, -0.899, 0.899, -0.438, 254.448, 578.555)"/><path id="Path_220" fill="#d15656" d="M267.5,320.752s-1.2-5.268-3.191-4.139S267.5,320.752,267.5,320.752Z" data-name="Path 220" opacity=".33" transform="translate(-138.821 -195.618)"/><path id="Path_242" fill="#d15656" d="M267.5,320.752s-1.2-5.268-3.191-4.139S267.5,320.752,267.5,320.752Z" data-name="Path 242" opacity=".33" transform="matrix(-0.438, -0.899, 0.899, -0.438, 275.964, 588.718)"/><path id="Path_221" fill="#d15656" d="M307.516,313.061s5.473-21.7,2.992-21.778S307.516,313.061,307.516,313.061Z" data-name="Path 221" opacity=".33" transform="translate(-158.628 -184.198)"/><path id="Path_249" fill="#d15656" d="M307.516,313.061s5.473-21.7,2.992-21.778S307.516,313.061,307.516,313.061Z" data-name="Path 249" opacity=".33" transform="matrix(-0.438, -0.899, 0.899, -0.438, 294.91, 601.514)"/><path id="Path_222" fill="#d15656" d="M353.749,333.07s2.393-5.645,4.786-4.139S353.749,333.07,353.749,333.07Z" data-name="Path 222" opacity=".33" transform="translate(-179.601 -201.162)"/><path id="Path_258" fill="#d15656" d="M353.749,333.07s2.393-5.645,4.786-4.139S353.749,333.07,353.749,333.07Z" data-name="Path 258" opacity=".33" transform="matrix(-0.438, -0.899, 0.899, -0.438, 288.857, 627.801)"/><path id="Path_223" fill="#d15656" d="M311.434,428.325s-3.191,22.2,2.792,21.826S311.434,428.325,311.434,428.325Z" data-name="Path 223" opacity=".33" transform="translate(-160.02 -246.368)"/><path id="Path_277" fill="#d15656" d="M311.434,428.325s-3.191,22.2,2.792,21.826S311.434,428.325,311.434,428.325Z" data-name="Path 277" opacity=".33" transform="matrix(-0.438, -0.899, 0.899, -0.438, 239.642, 630.019)"/><path id="Path_224" fill="#4abe20" d="M570.3,352.535s-19.117,6.213-22.783,11.947S570.3,352.535,570.3,352.535Z" data-name="Path 224" opacity=".33" transform="translate(-267.348 -211.986)"/><path id="Path_225" fill="#4abe20" d="M569.129,340.765s-17.617-1.709-22.961,1.211S569.129,340.765,569.129,340.765Z" data-name="Path 225" opacity=".33" transform="translate(-266.588 -206.421)"/><path id="Path_226" fill="#4abe20" d="M592.126,317.4s-8.861-20.076-6.714-22.063S592.126,317.4,592.126,317.4Z" data-name="Path 226" opacity=".33" transform="translate(-284.544 -185.986)"/><path id="Path_227" fill="#4abe20" d="M604.11,327.05s4.756-20.292,9.739-20.292S604.11,327.05,604.11,327.05Z" data-name="Path 227" opacity=".33" transform="translate(-293.178 -191.219)"/><path id="Path_228" fill="#4abe20" d="M609.22,336.427s30.34-15.124,32.114-7.1S609.22,336.427,609.22,336.427Z" data-name="Path 228" opacity=".33" transform="translate(-295.496 -200.394)"/><path id="Path_229" fill="#4abe20" d="M628.2,346.35s28.642-.361,30.252,2.525S628.2,346.35,628.2,346.35Z" data-name="Path 229" opacity=".33" transform="translate(-304.107 -209.174)"/><path id="Path_230" fill="#4abe20" d="M617.98,351.846s17.3,7.545,13.92,9.866S617.98,351.846,617.98,351.846Z" data-name="Path 230" opacity=".33" transform="translate(-299.47 -211.673)"/><path id="Path_231" fill="#4abe20" d="M670.538,368.377s14.358,5.645,11.167,9.408S670.538,368.377,670.538,368.377Z" data-name="Path 231" opacity=".33" transform="translate(-323.314 -219.172)"/><path id="Path_232" fill="#4abe20" d="M621.63,360.111s29.912,30.857,27.12,32.739S621.63,360.111,621.63,360.111Z" data-name="Path 232" opacity=".33" transform="translate(-301.126 -215.423)"/><path id="Path_233" fill="#4abe20" d="M611.41,355.979s12.594,19.79,10.023,21.714S611.41,355.979,611.41,355.979Z" data-name="Path 233" opacity=".33" transform="translate(-296.49 -213.548)"/><path id="Path_234" fill="#4abe20" d="M597.8,354.6s-8.954,19.273-2,18.948S597.8,354.6,597.8,354.6Z" data-name="Path 234" opacity=".33" transform="translate(-288.209 -212.923)"/><path id="Path_235" fill="#4abe20" d="M580.047,357.472S561.022,378,562.763,380.167,580.047,357.472,580.047,357.472Z" data-name="Path 235" opacity=".33" transform="translate(-274.37 -214.226)"/><path id="Path_236" fill="#4abe20" d="M563.633,323s-5.445-12.655-20.784-10.863S563.633,323,563.633,323Z" data-name="Path 236" opacity=".33" transform="translate(-263.666 -193.581)"/><path id="Path_237" fill="#4abe20" d="M543.353,329.559s-21.935-1.505-20.34,2.258S543.353,329.559,543.353,329.559Z" data-name="Path 237" opacity=".33" transform="translate(-256.351 -201.428)"/><path id="Path_238" fill="#4abe20" d="M567.5,300.752s-1.2-5.268-3.191-4.139S567.5,300.752,567.5,300.752Z" data-name="Path 238" opacity=".33" transform="translate(-274.917 -186.545)"/><path id="Path_239" fill="#4abe20" d="M607.516,293.061s5.473-21.7,2.992-21.778S607.516,293.061,607.516,293.061Z" data-name="Path 239" opacity=".33" transform="translate(-294.724 -175.125)"/><path id="Path_240" fill="#4abe20" d="M653.749,313.07s2.393-5.645,4.786-4.139S653.749,313.07,653.749,313.07Z" data-name="Path 240" opacity=".33" transform="translate(-315.697 -192.089)"/><path id="Path_241" fill="#4abe20" d="M611.434,408.325s-3.191,22.2,2.792,21.826S611.434,408.325,611.434,408.325Z" data-name="Path 241" opacity=".33" transform="translate(-296.115 -237.295)"/><path id="Path_296" fill="#82c439" d="M897.157,214.571s-20.193,9.121-24.066,17.54S897.157,214.571,897.157,214.571Z" data-name="Path 296" opacity=".33" transform="translate(-552.035 -240.398)"/><path id="Path_297" fill="#82c439" d="M895.916,197.291s-18.609-2.509-24.254,1.778S895.916,197.291,895.916,197.291Z" data-name="Path 297" opacity=".33" transform="translate(-551.232 -232.228)"/><path id="Path_298" fill="#82c439" d="M920.208,162.992s-9.36-29.474-7.092-32.391S920.208,162.992,920.208,162.992Z" data-name="Path 298" opacity=".33" transform="translate(-570.199 -202.227)"/><path id="Path_299" fill="#82c439" d="M932.867,177.156s5.024-29.791,10.287-29.791S932.867,177.156,932.867,177.156Z" data-name="Path 299" opacity=".33" transform="translate(-579.32 -208.91)"/><path id="Path_300" fill="#82c439" d="M938.264,193.491s17.272-14.314,52.66-9.944S938.264,193.491,938.264,193.491Z" data-name="Path 300" opacity=".33" transform="translate(-581.768 -225.947)"/><path id="Path_301" fill="#82c439" d="M958.313,205.491s30.255-.53,31.955,3.707S958.313,205.491,958.313,205.491Z" data-name="Path 301" opacity=".33" transform="translate(-590.863 -236.269)"/><path id="Path_302" fill="#82c439" d="M947.517,213.56s18.274,11.077,14.7,14.485S947.517,213.56,947.517,213.56Z" data-name="Path 302" opacity=".33" transform="translate(-585.966 -239.939)"/><path id="Path_303" fill="#82c439" d="M1003.035,237.829s15.166,8.287,11.8,13.812S1003.035,237.829,1003.035,237.829Z" data-name="Path 303" opacity=".33" transform="translate(-611.152 -250.949)"/><path id="Path_304" fill="#82c439" d="M951.373,225.694s31.6,45.3,28.647,48.064S951.373,225.694,951.373,225.694Z" data-name="Path 304" opacity=".33" transform="translate(-587.715 -244.444)"/><path id="Path_305" fill="#82c439" d="M940.578,219.627s13.3,29.055,10.588,31.879S940.578,219.627,940.578,219.627Z" data-name="Path 305" opacity=".33" transform="translate(-582.818 -242.692)"/><path id="Path_306" fill="#82c439" d="M924.456,217.6s-11.972,46.329-4.626,45.851S924.456,217.6,924.456,217.6Z" data-name="Path 306" opacity=".33" transform="translate(-572.323 -241.774)"/><path id="Path_307" fill="#82c439" d="M907.449,221.82s-20.1,30.144-18.258,33.319S907.449,221.82,907.449,221.82Z" data-name="Path 307" opacity=".33" transform="translate(-559.452 -243.686)"/><path id="Path_308" fill="#82c439" d="M880.98,164.166s-17.521-27.141-33.723-24.511S880.98,164.166,880.98,164.166Z" data-name="Path 308" opacity=".33" transform="translate(-539.015 -206.331)"/><path id="Path_309" fill="#82c439" d="M868.689,180.839s-23.17-2.21-21.485,3.315S868.689,180.839,868.689,180.839Z" data-name="Path 309" opacity=".33" transform="translate(-540.419 -224.897)"/><path id="Path_310" fill="#82c439" d="M894.2,138.548s-1.264-7.735-3.37-6.077S894.2,138.548,894.2,138.548Z" data-name="Path 310" opacity=".33" transform="translate(-560.03 -203.047)"/><path id="Path_311" fill="#82c439" d="M936.465,127.256s5.781-31.856,3.161-31.973S936.465,127.256,936.465,127.256Z" data-name="Path 311" opacity=".33" transform="translate(-580.952 -186.282)"/><path id="Path_312" fill="#82c439" d="M985.3,156.632s2.528-8.287,5.055-6.077S985.3,156.632,985.3,156.632Z" data-name="Path 312" opacity=".33" transform="translate(-603.106 -211.187)"/><path id="Path_313" fill="#82c439" d="M940.6,296.478s-3.37,32.6,2.949,32.043S940.6,296.478,940.6,296.478Z" data-name="Path 313" opacity=".33" transform="translate(-582.422 -276.556)"/></g><g id="undraw_to_do_list_a49b" transform="translate(-1106.3 1317)"><path id="Path_1" fill="#6c63ff" d="M279.825,80.807c28.3-25.488,72.719-30.678,113.149-28.65,126.994,6.374,241.631,68.279,340.791,138.306,35.9,25.351,71.239,52.695,94.562,87.582,47.44,71.066,33.364,169.518-32.591,228.06-22.442,19.923-49.649,35.19-77.577,48.732-5.859,2.84-11.773,5.614-18.061,8.451-44.276,19.982-91.815,35.581-141.532,40.433-40.192,3.92-80.847.722-120.837-4.735C326.1,583.7,216.519,549.9,124.671,492.05c-40.3-25.366-78.27-56.9-94.872-97.962S23.822,301.05,64.953,276.76c17.014-10.048,37.348-14.581,57.264-18.847,29.314-6.266,59.09-12.452,85.546-25.2,27.322-13.166,59.668-38.633,54.261-67.781C256.221,133.682,251.565,106.216,279.825,80.807Z" data-name="Path 1" opacity=".1" transform="translate(969.7 -1346.76)"/><path id="Path_2" fill="#6c63ff" d="M279,498.364s7.486-5.363,15.231-2.05c0,0-2.166,4.605-11.817,4.548Z" data-name="Path 2" transform="translate(898.297 -1470.113)"/><path id="Path_3" fill="#6c63ff" d="M277.589,500s-2,8.987,4.093,14.819c0,0,3.378-3.8-.462-12.654Z" data-name="Path 3" transform="translate(898.777 -1471.439)"/><path id="Path_4" fill="#6c63ff" d="M264,486.349s.274-7.587,17.454-5.731c0,0,.267,4.88-5.638,7.421S267.082,488.753,264,486.349Z" data-name="Path 4" transform="translate(902.469 -1465.967)"/><path id="Path_5" fill="#6c63ff" d="M261.3,488.65s-7.139,2.6-.079,18.378c0,0,4.721-1.249,5.32-7.652S264.525,490.859,261.3,488.65Z" data-name="Path 5" transform="translate(904.11 -1468.282)"/><path id="Path_6" fill="#6c63ff" d="M248.549,469.741s-1.444-12.416,16.054-11.809c0,0,1.667,11.225-12.856,14.682Z" data-name="Path 6" transform="translate(906.775 -1459.732)"/><path id="Path_7" fill="#6c63ff" d="M231.83,451.112s1.855-14.2,19.49-10.669c0,0,.534,12.2-16.487,13.924Z" data-name="Path 7" transform="translate(911.418 -1454.717)"/><path id="Path_8" fill="#6c63ff" d="M219.38,431.51s3.479-13.924,20.934-10.445c0,0-3.609,12.524-19.685,12.943Z" data-name="Path 8" transform="translate(914.881 -1449.328)"/><path id="Path_9" fill="#6c63ff" d="M207.53,412.14s3.371-14.437,20.212-10.77c0,0-5.053,13.766-19.035,13.159Z" data-name="Path 9" transform="translate(918.177 -1443.839)"/><path id="Path_10" fill="#6c63ff" d="M199.66,392.454s2.346-17.562,18.046-14.3c0,0-3.912,16.047-16.819,16.79Z" data-name="Path 10" transform="translate(920.366 -1437.435)"/><path id="Path_11" fill="#6c63ff" d="M192.09,370.436s2.938-17.721,18.876-13.21c0,0-5.544,16.855-17.685,15.6Z" data-name="Path 11" transform="translate(922.471 -1431.522)"/><path id="Path_12" fill="#6c63ff" d="M187.13,348.143s5.053-17.8,17.267-17.794c0,0-5.161,18.768-16.112,21.28Z" data-name="Path 12" transform="translate(923.851 -1424.251)"/><path id="Path_13" fill="#6c63ff" d="M183.71,326.793s5.436-21.41,15.411-20.154c0,0-3.7,16.343-14.935,23.438Z" data-name="Path 13" transform="translate(924.802 -1417.641)"/><path id="Path_14" fill="#6c63ff" d="M181.28,302.861S186.456,285,196.215,283.92c0,0-3.32,17.5-14.545,23.518Z" data-name="Path 14" transform="translate(925.478 -1411.336)"/><path id="Path_15" fill="#6c63ff" d="M178.76,280.278s6.627-17.938,13.08-18.588c0,0-2.5,17.5-12.322,21.461Z" data-name="Path 15" transform="translate(926.179 -1405.153)"/><path id="Path_16" fill="#6c63ff" d="M176.83,258.1s3.754-19.353,10.149-21.186c0,0-.282,15.715-9.449,22.594Z" data-name="Path 16" transform="translate(926.716 -1398.26)"/><path id="Path_17" fill="#6c63ff" d="M172.4,231.686s4.136-15.462,9.276-18c0,0-.346,18.046-7.94,21.655Z" data-name="Path 17" transform="translate(927.948 -1391.801)"/><path id="Path_18" fill="#6c63ff" d="M168.135,210.11,166.15,183.2s10.539,19.966,2.887,31.639Z" data-name="Path 18" transform="translate(929.687 -1383.32)"/><path id="Path_19" fill="#6c63ff" d="M153.331,175.9s-7.789-19.41-9.521-20.443c0,0,14.293,12.271,13.571,28.715Z" data-name="Path 19" transform="translate(935.901 -1375.604)"/><path id="Path_20" fill="#6c63ff" d="M243.481,474.194s-12.452-1.148-11.405,16.335c0,0,11.261,1.393,14.358-13.217Z" data-name="Path 20" transform="translate(911.367 -1464.257)"/><path id="Path_21" fill="#6c63ff" d="M226.136,454.82s-14.307.5-12.459,18.364c0,0,12.091,1.689,15.419-15.094Z" data-name="Path 21" transform="translate(916.513 -1458.872)"/><path id="Path_22" fill="#6c63ff" d="M211.184,437.006s-13.224-5.594-20.934,10.445c0,0,12.192,4.613,22.175-7.94Z" data-name="Path 22" transform="translate(922.983 -1453.655)"/><path id="Path_23" fill="#6c63ff" d="M199.128,416.289s-13.542-5.977-20.768,9.687c0,0,14.04,4.237,21.959-7.305Z" data-name="Path 23" transform="translate(926.291 -1447.843)"/><path id="Path_24" fill="#6c63ff" d="M191.045,396.732s-13.268-11.737-23.005,1.025c0,0,13.462,9.557,23.7,1.675Z" data-name="Path 24" transform="translate(929.161 -1441.345)"/><path id="Path_25" fill="#6c63ff" d="M184.211,373.288s-13.354-12.012-22.991,1.444c0,0,14.848,9.709,23.554,1.148Z" data-name="Path 25" transform="translate(931.058 -1434.821)"/><path id="Path_26" fill="#6c63ff" d="M180.427,349.6s-10.517-15.231-22.067-11.3c0,0,10.929,16.14,22.1,14.978Z" data-name="Path 26" transform="translate(931.854 -1426.282)"/><path id="Path_27" fill="#6c63ff" d="M176.385,328.264s-10.763-19.288-20.075-15.512c0,0,7.782,14.841,20.45,18.8Z" data-name="Path 27" transform="translate(932.424 -1419.219)"/><path id="Path_28" fill="#6c63ff" d="M174.3,303.7s-10.871-15.087-20.421-12.827c0,0,9,15.375,21.59,17.274Z" data-name="Path 28" transform="translate(933.1 -1413.205)"/><path id="Path_29" fill="#6c63ff" d="M174.428,280.36S165.8,263.3,159.32,263.39c0,0,4.483,17.108,14.682,19.909Z" data-name="Path 29" transform="translate(931.587 -1405.625)"/><path id="Path_30" fill="#6c63ff" d="M171.014,259.155s-9.528-17.252-16.184-17.036c0,0,5.111,14.87,15.946,18.595Z" data-name="Path 30" transform="translate(932.836 -1399.708)"/><path id="Path_31" fill="#6c63ff" d="M169.516,233.933s-7.182-14.307-12.726-15.743c0,0,3.992,17.613,12.141,19.634Z" data-name="Path 31" transform="translate(932.29 -1393.053)"/><path id="Path_32" fill="#6c63ff" d="M161.747,211.353,146.09,189.38s4.641,22.1,17.981,26.189Z" data-name="Path 32" transform="translate(935.267 -1385.039)"/><path id="Path_33" fill="#6c63ff" d="M145.342,181.419S127.722,170.208,127,168.31c0,0,9.384,16.3,25.741,18.609Z" data-name="Path 33" transform="translate(940.576 -1379.179)"/><path id="Path_34" fill="#6c63ff" d="M140.87,172.189s-20.472-18.227-25.51-18.01c0,0,16.314.115,25.986,16.985Z" data-name="Path 34" transform="translate(943.814 -1375.248)"/><path id="Path_35" fill="#444053" d="M167.438,225.366l-.722.123c-4.822-28.91-10.893-45.866-17.086-47.757l.209-.722C156.394,179,162.5,195.713,167.438,225.366Z" data-name="Path 35" transform="translate(934.282 -1381.599)"/><path id="Path_36" fill="#444053" d="M182.051,312.371l-1.083.13c-.332-2.7-.621-5.472-.845-8.229-1.956-24-4.41-46.018-7.154-62.49l.6-.8c2.75,16.5,5.681,39.167,7.644,63.2C181.437,306.928,181.719,309.678,182.051,312.371Z" data-name="Path 36" transform="translate(927.79 -1399.392)"/><path id="Path_37" fill="#444053" d="M273.3,467.421c-.195-.079-19.656-7.89-40.3-27.51a157.823,157.823,0,0,1-30.2-39.485c-9.9-18.342-16.372-41.109-19.107-63.356l1.155.491c6.136,49.937,30.26,83.315,49.086,101.253,20.443,19.447,39.7,27.177,39.882,27.25Z" data-name="Path 37" transform="translate(924.808 -1426.12)"/><g id="Group_1" data-name="Group 1" opacity=".7" transform="translate(1152.401 -1290.662)"><path id="Path_38" fill="#6c63ff" d="M320.84,435.916s8.742-2.887,15.159,2.577c0,0-3.443,3.754-12.64.823Z" data-name="Path 38" transform="translate(-265.741 -162.741)"/><path id="Path_39" fill="#6c63ff" d="M318.636,436.23s-4.576,7.991-.5,15.361c0,0,4.331-2.62,3.328-12.214Z" data-name="Path 39" transform="translate(-264.519 -163.04)"/><path id="Path_40" fill="#6c63ff" d="M309.75,420.081s2.526-7.161,18.371-.281c0,0-1.191,4.742-7.594,5.407S311.988,423.279,309.75,420.081Z" data-name="Path 40" transform="translate(-262.657 -157.639)"/><path id="Path_41" fill="#6c63ff" d="M306.09,420.89s-7.579.361-5.544,17.519c0,0,4.887.217,7.363-5.724S308.515,423.951,306.09,420.89Z" data-name="Path 41" transform="translate(-260 -158.773)"/><path id="Path_42" fill="#6c63ff" d="M299.3,399.9s2.3-12.271,18.833-6.5c0,0-1.74,11.21-16.639,10.193Z" data-name="Path 42" transform="translate(-259.75 -150.698)"/><path id="Path_43" fill="#6c63ff" d="M288.94,377.174s5.991-12.993,21.756-4.389c0,0-3.118,11.8-19.887,8.388Z" data-name="Path 43" transform="translate(-256.868 -144.574)"/><path id="Path_44" fill="#6c63ff" d="M282.9,354.945s7.471-12.271,23.1-3.746c0,0-7.218,10.871-22.644,6.5Z" data-name="Path 44" transform="translate(-255.188 -138.55)"/><path id="Path_45" fill="#6c63ff" d="M277.31,332.892s7.507-12.762,22.514-4.266c0,0-8.915,11.636-22.081,6.9Z" data-name="Path 45" transform="translate(-253.633 -132.298)"/><path id="Path_46" fill="#6c63ff" d="M275.27,311.74s7.464-16.068,21.5-8.272c0,0-8.511,14.148-21.049,11.023Z" data-name="Path 46" transform="translate(-253.066 -125.518)"/><path id="Path_47" fill="#6c63ff" d="M274.69,288.438s8.077-16.047,21.944-6.995c0,0-10.3,14.437-21.518,9.629Z" data-name="Path 47" transform="translate(-252.905 -119.216)"/><path id="Path_48" fill="#6c63ff" d="M276.16,266.049s10.106-15.491,21.771-11.853c0,0-10.517,16.408-21.713,15.527Z" data-name="Path 48" transform="translate(-253.314 -112.253)"/><path id="Path_49" fill="#6c63ff" d="M278.8,244.462s11.55-18.819,20.71-14.653c0,0-8.4,14.5-21.23,17.931Z" data-name="Path 49" transform="translate(-253.903 -105.456)"/><path id="Path_50" fill="#6c63ff" d="M283.512,220.993s10.265-15.512,19.894-13.643c0,0-8.373,15.729-20.876,18.126Z" data-name="Path 50" transform="translate(-255.085 -99.333)"/><path id="Path_51" fill="#6c63ff" d="M288.207,198.494s11.658-15.159,18.01-13.845c0,0-7.6,15.967-18.147,16.812Z" data-name="Path 51" transform="translate(-256.626 -93.039)"/><path id="Path_52" fill="#6c63ff" d="M292.71,176.439s9.341-17.324,16-17.209c0,0-4.952,14.921-15.743,18.768Z" data-name="Path 52" transform="translate(-257.917 -85.991)"/><path id="Path_53" fill="#6c63ff" d="M296.7,149.8s8.554-13.527,14.213-14.437c0,0-5.7,17.137-14.018,18.342Z" data-name="Path 53" transform="translate(-259.027 -79.352)"/><path id="Path_54" fill="#6c63ff" d="M298.549,126.87l6.114-26.29s4.122,22.2-6.663,31.039Z" data-name="Path 54" transform="translate(-259.388 -69.678)"/><path id="Path_55" fill="#6c63ff" d="M297.18,89.807s-1.667-20.847-3.01-22.377c0,0,10,15.938,4.418,31.458Z" data-name="Path 55" transform="translate(-258.323 -60.457)"/><path id="Path_56" fill="#6c63ff" d="M292.623,402.49S281.074,397.7,276.88,414.7c0,0,10.33,4.678,17.635-8.352Z" data-name="Path 56" transform="translate(-253.514 -153.482)"/><path id="Path_57" fill="#6c63ff" d="M281.63,379.069s-13.809-3.775-17.36,13.831c0,0,11.044,5.212,19.216-9.824Z" data-name="Path 57" transform="translate(-250.006 -147.046)"/><path id="Path_58" fill="#6c63ff" d="M273.4,357.816s-10.958-9.276-23.1,3.746c0,0,10.265,8.034,23.539-1Z" data-name="Path 58" transform="translate(-246.12 -140.338)"/><path id="Path_59" fill="#6c63ff" d="M268.129,334.365s-11.16-9.73-22.709,3.068c0,0,12.141,8.229,23.135-.433Z" data-name="Path 59" transform="translate(-244.763 -133.721)"/><path id="Path_60" fill="#6c63ff" d="M266.786,312.9s-9.182-15.159-22.276-5.876c0,0,10.012,13.138,22.132,8.662Z" data-name="Path 60" transform="translate(-244.51 -126.263)"/><path id="Path_61" fill="#6c63ff" d="M267.187,288.5s-9.182-15.44-22.377-5.45c0,0,11.29,13.715,22.139,8.106Z" data-name="Path 61" transform="translate(-244.593 -119.497)"/><path id="Path_62" fill="#6c63ff" d="M271.27,263.952s-5.508-17.664-17.7-17.324c0,0,5.63,18.667,16.639,20.876Z" data-name="Path 62" transform="translate(-247.03 -110.3)"/><path id="Path_63" fill="#6c63ff" d="M273.775,242.3s-4.533-21.619-14.545-20.782c0,0,3.017,16.487,13.932,24.045Z" data-name="Path 63" transform="translate(-248.604 -103.311)"/><path id="Path_64" fill="#6c63ff" d="M279.136,218.148s-5.89-17.642-15.686-18.328c0,0,4.021,17.36,15.476,22.919Z" data-name="Path 64" transform="translate(-249.778 -97.282)"/><path id="Path_65" fill="#6c63ff" d="M286.217,195.815s-3.162-18.855-9.384-20.7c0,0-.8,17.664,8.1,23.381Z" data-name="Path 65" transform="translate(-253.495 -90.411)"/><path id="Path_66" fill="#6c63ff" d="M289.27,174.558s-3.963-19.309-10.38-21.078c0,0,.455,15.715,9.694,22.493Z" data-name="Path 66" transform="translate(-254.073 -84.392)"/><path id="Path_67" fill="#6c63ff" d="M295.288,150.069s-2.6-15.794-7.464-18.819c0,0-1.444,18,5.775,22.377Z" data-name="Path 67" transform="translate(-256.525 -78.209)"/><path id="Path_68" fill="#6c63ff" d="M294.585,126.12l-8.417-25.64s-2.166,22.478,9.384,30.354Z" data-name="Path 68" transform="translate(-256.052 -69.65)"/><path id="Path_69" fill="#6c63ff" d="M287.891,92.7s-13.52-15.96-13.621-17.974c0,0,4.136,18.357,19.035,25.423Z" data-name="Path 69" transform="translate(-252.788 -62.487)"/><path id="Path_70" fill="#6c63ff" d="M286.369,82.565s-14.127-23.5-19-24.8c0,0,15.534,4.974,19.721,23.936Z" data-name="Path 70" transform="translate(-250.869 -57.77)"/><path id="Path_71" fill="#444053" d="M295.84,141.2l-.722-.1c3.992-29.025,3.248-47.028-2.108-50.674l.411-.6C299.1,93.706,299.932,111.471,295.84,141.2Z" data-name="Path 71" transform="translate(-258 -66.688)"/><path id="Path_72" fill="#444053" d="M278.716,228.763l-1.076-.195c.491-2.678,1.039-5.407,1.646-8.114,5.277-23.5,9.485-45.238,11.759-61.783l.816-.592c-2.281,16.6-6.23,39.088-11.506,62.62C279.748,223.349,279.2,226.063,278.716,228.763Z" data-name="Path 72" transform="translate(-253.725 -85.672)"/><path id="Path_73" fill="#444053" d="M323.69,403.821c-.159-.13-16.415-13.376-30.318-38.258a157.7,157.7,0,0,1-17.079-46.682c-3.992-20.457-3.407-44.119.606-66.172l.953.808c-8.987,49.5,4.115,88.556,16.776,111.287,13.715,24.644,29.8,37.753,29.964,37.882Z" data-name="Path 73" transform="translate(-252.595 -111.993)"/></g><path id="Path_77" d="M591.374,633.1l-72.408,28.015L413.129,702.023c-3.992-7.413-9.882-17.555-17.173-29.6-25.063-41.542-66.54-106.155-103.455-162.935-41.607-63.977-77.411-118-77.411-118l25.922-7.514L452.744,322.57Z" data-name="Path 77" opacity=".1" transform="translate(916.074 -1422.087)"/><path id="Path_78" fill="#fff" d="M593.374,626.1l-72.408,28.015L415.129,695.023c-3.992-7.413-9.882-17.555-17.173-29.6-25.063-41.542-66.54-106.155-103.455-162.935-41.607-63.977-77.411-118-77.411-118l25.922-7.514L454.743,315.57Z" data-name="Path 78" transform="translate(915.518 -1420.14)"/><path id="Path_79" d="M603.363,626.1l-72.408,28.015a544.573,544.573,0,0,1-123.01,11.311c-25.063-41.542-66.54-106.155-103.455-162.935L253,376.977,464.732,315.57Z" data-name="Path 79" opacity=".1" transform="translate(905.529 -1420.14)"/><path id="Path_80" fill="#6c63ff" d="M653.34,596.771S540.847,663.311,372.9,648.3L239,321.884l64.165-11.023L524.974,272.77,650.828,590.462Z" data-name="Path 80" transform="translate(909.423 -1408.235)"/><path id="Path_82" fill="#fff" d="M752.279,535.584s-82.955,16.256-167.31,6.244c-33.364-3.934-66.922-12.012-95.688-26.838-24.052-12.394-44.617-25.857-62.555-42.019C368.978,421,338.509,341.436,307.08,180.688c0,0,137.873,33.27,274.092-39.608C581.172,141.08,627.118,427.848,752.279,535.584Z" data-name="Path 82" transform="translate(890.487 -1371.605)"/><path id="Path_83" d="M631.073,657.823c-33.364-3.934-66.922-12.011-95.688-26.838-24.052-12.394-44.617-25.856-62.555-42.019,49.151-3.992,56.217-30.866,56.217-30.866C565.486,615.934,631.073,657.823,631.073,657.823Z" data-name="Path 83" opacity=".1" transform="translate(844.383 -1487.6)"/><path id="Path_84" fill="#6c63ff" d="M405.85,265.958s74.061,8.453,143.38-30.5l4.75,15.253S487.664,283.78,405.85,283.78Z" data-name="Path 84" opacity=".3" transform="translate(863.013 -1397.857)"/><path id="Path_85" d="M405.85,364.446s73.628-5.941,155.594-45.556l2.772,6.338S534.05,363.19,405.85,373.108Z" data-name="Path 85" opacity=".3" transform="translate(863.013 -1421.063)"/><path id="Path_86" d="M417.94,405.128s73.628-5.941,155.594-45.548l2.772,6.338s-30.159,38-158.366,47.923Z" data-name="Path 86" opacity=".3" transform="translate(859.651 -1432.381)"/><path id="Path_87" d="M429,448.978s73.628-5.941,155.594-45.549l2.772,6.338S557.164,447.744,429,457.691Z" data-name="Path 87" opacity=".3" transform="translate(856.574 -1444.578)"/><path id="Path_88" d="M442.13,486.558s73.628-5.941,155.594-45.549l2.772,6.338s-30.159,37.984-158.366,47.931Z" data-name="Path 88" opacity=".3" transform="translate(852.922 -1455.031)"/><path id="Path_89" d="M454.23,527.278s73.628-5.941,155.594-45.548l2.772,6.338S582.43,526.051,454.23,535.991Z" data-name="Path 89" opacity=".1" transform="translate(849.556 -1466.358)"/><rect id="Rectangle_1" width="21.764" height="21.764" fill="#6c63ff" data-name="Rectangle 1" opacity=".3" transform="translate(1436.621 -1114.928) rotate(-18.8)"/><rect id="Rectangle_2" width="21.764" height="21.764" fill="#6c63ff" data-name="Rectangle 2" opacity=".3" transform="translate(1448.342 -1084.278) rotate(-18.8)"/><rect id="Rectangle_3" width="21.764" height="21.764" fill="#6c63ff" data-name="Rectangle 3" opacity=".3" transform="translate(1467.132 -1025.303) rotate(-18.8)"/><rect id="Rectangle_4" width="21.764" height="21.764" fill="#6c63ff" data-name="Rectangle 4" opacity=".3" transform="translate(1477.912 -993.651) rotate(-18.8)"/><rect id="Rectangle_5" width="21.764" height="21.764" fill="#6c63ff" data-name="Rectangle 5" opacity=".3" transform="translate(1457.898 -1052.437) rotate(-18.8)"/><path id="Path_122" fill="#efc8c4" d="M701.832,415.58l3.848,10.294-10.156-1.018-2.223-.224,3.039-3.219Z" data-name="Path 122" transform="translate(799.155 -1410.595)"/><path id="Path_123" fill="#727a9c" d="M718.637,475.42a2.2,2.2,0,0,1,.592.65.931.931,0,0,1,0,1,2.259,2.259,0,0,1-.563.4,1.841,1.841,0,0,0-.823,1.393l-2.223-.224Z" data-name="Path 123" transform="translate(776.85 -1464.602)"/><path id="Path_124" fill="#3acc6c" d="M653.583,304.93l-9.738-4.75a1.177,1.177,0,0,1-.541-1.574l1.032-2.122a1.169,1.169,0,0,1,1.574-.541l6.562,3.2,6.85-14.047a1.184,1.184,0,0,1,1.574-.549l2.122,1.039a1.169,1.169,0,0,1,.541,1.574l-8.4,17.23A1.177,1.177,0,0,1,653.583,304.93Z" data-name="Path 124" transform="translate(796.998 -1411.478)"/><path id="Path_125" fill="#3acc6c" d="M683.053,389.095l-9.738-4.75a1.177,1.177,0,0,1-.541-1.574l1.032-2.122a1.184,1.184,0,0,1,1.581-.541l6.554,3.2,6.843-14.062a1.184,1.184,0,0,1,1.574-.549l2.115,1.039a1.177,1.177,0,0,1,.549,1.574l-8.4,17.23a1.191,1.191,0,0,1-1.581.541Z" data-name="Path 125" transform="translate(788.801 -1434.884)"/><path id="Path_126" fill="#3acc6c" d="M669.822,347.6l-9.738-4.75a1.184,1.184,0,0,1-.549-1.574l1.039-2.122a1.169,1.169,0,0,1,1.574-.541l6.562,3.2,6.85-14.069a1.177,1.177,0,0,1,1.574-.541l2.122,1.032a1.191,1.191,0,0,1,.541,1.581l-8.409,17.245a1.177,1.177,0,0,1-1.574.541Z" data-name="Path 126" transform="translate(792.482 -1423.342)"/><path id="Path_127" fill="#3acc6c" d="M695.853,427.1l-9.738-4.75a1.177,1.177,0,0,1-.541-1.574l1.032-2.122a1.177,1.177,0,0,1,1.573-.541l6.562,3.2,6.85-14.047a1.191,1.191,0,0,1,1.581-.549l2.115,1.039a1.169,1.169,0,0,1,.541,1.574l-8.4,17.23a1.191,1.191,0,0,1-1.581.541Z" data-name="Path 127" transform="translate(785.241 -1445.46)"/></g><g filter="url(#JAMstack_to_watch_in)" transform="matrix(1, 0, 0, 1, 0, 0)"><text id="JAMstack_to_watch_in-2" fill="#3f3d56" data-name="JAMstack to watch in" font-family="Monaco" font-size="88" transform="translate(564.42 199.33)"><tspan x="0" y="0">JAMstack</tspan><tspan x="0" y="88">to watch in</tspan></text></g></g></svg>